<svg viewBox="0 0 220 80" height="50">
  <path d="M20,45 Q22,35 28,38 Q32,40 30,48 Q28,55 22,55 Q18,55 16,50 Q14,45 18,42
           M28,38 Q35,30 42,35 Q48,40 45,48 Q42,55 36,52 Q32,50 32,45
           M48,30 L48,55 Q48,60 52,58 Q56,56 58,52
           M58,35 Q62,28 68,32 Q72,36 72,42 Q72,50 68,54 Q64,58 58,54 Q54,50 54,45
           M72,35 Q76,28 82,32 Q86,36 86,42 Q86,50 82,54 Q78,58 72,54 Q68,50 68,45
           M86,30 L86,55 Q86,62 92,60 Q98,58 102,52 L108,35 Q110,28 116,32 Q120,36 118,44 Q116,50 110,52 Q106,54 102,50
           M118,35 Q122,28 128,32 Q132,36 132,42 Q132,50 128,54 Q124,58 120,54"
        fill="none"
        stroke="currentColor"
        stroke-width="2.8"
        stroke-linecap="round"
        stroke-linejoin="round"/>
</svg>